# xmcd
#
# Track frame offsets: 
#        150
#        22961
#        51841
#        79809
#        112580
#        134456
#        170599
#        195889
#        229069
#
# Disc length: 3335 seconds
#
# Revision: 0
# Processed by: cddbd v1.5.2PL0 Copyright (c) Steve Scherf et al.
# Submitted via: ExactAudioCopy v0.95b4
#
DISCID=650d0509
DTITLE=Charles Earland - Scorched, Seared and Smokin': The Best Of "The 
DTITLE=Mighty Burner" Disc 1
DYEAR=2011
DGENRE=Blues
TTITLE0=The Count Is In The House
TTITLE1=Milestones
TTITLE2=For The Love Of You
TTITLE3=The Creation
TTITLE4=One Eyed Man
TTITLE5=My Favorite Things
TTITLE6=Sister Sadie
TTITLE7=Mercy, Mercy
TTITLE8=Seven Steps To Heaven
EXTD=
EXTT0=
EXTT1=
EXTT2=
EXTT3=
EXTT4=
EXTT5=
EXTT6=
EXTT7=
EXTT8=
PLAYORDER=
